<?xml version="1.0" encoding="UTF-8"?>
<svg id="Camada_2" data-name="Camada 2" xmlns="http://www.w3.org/2000/svg" viewBox="0 0 40.27 43.9">
  <defs>
    <style>
      .cls-1 {
        stroke-width: 0px;
      }
    </style>
  </defs>
  <g id="Layer_1" data-name="Layer 1">
    <path class="cls-1" d="M16.54,41.14c-.06,0-.12,0-.17-.02-.27-.05-.38-.01-.5.24-.07.15-.18.24-.34.26-.26.04-.52.11-.77.09-.55-.03-1.05.12-1.53.35-.1.05-.2.09-.3.13-.2.07-.33.2-.48.35-.2.2-.44.37-.68.52-.31.19-.64.34-.97.5-.08.04-.18.06-.27.05-.26-.01-.26-.01-.29.23,0,.02,0,.04-.01.06-.33-.12-.46-.63-.2-.87.26-.24.56-.44.85-.65.04-.03.09-.06.12-.13-.25.04-.5.08-.76.12-.63.09-1.26.21-1.9.26-.63.04-1.27,0-1.9.01-.19,0-.34-.07-.46-.23-.21-.27-.35-.29-.65-.13-.13.07-.25.15-.38.2-.04.02-.11,0-.16,0,0-.05,0-.12.02-.16.11-.26.29-.44.56-.53.64-.21,1.29-.33,1.97-.29.51.03,1.03,0,1.54,0,.02,0,.04-.01.07-.02-.13-.12-.26-.23-.38-.35-.05-.05-.09-.12-.12-.19-.07-.15-.15-.19-.29-.09-.1.07-.15.01-.18-.07-.08-.19.07-.43.28-.44.41-.02.81,0,1.2.19.49.23,1.03.26,1.57.3.31.02.6-.01.83-.22.17-.15.32-.33.44-.53.25-.39.47-.79.7-1.19.01-.02,0-.04.02-.08-.03,0-.06,0-.07,0-.48.25-1.01.33-1.54.44-.16.03-.32.08-.48.14-.2.08-.4.1-.61.04-.1-.03-.2-.02-.3,0-.11.02-.18-.01-.18-.12,0-.13.02-.26.07-.38.07-.21.05-.28-.16-.31-.62-.1-1.25-.19-1.88-.29-.17-.03-.3-.11-.37-.27-.11-.22-.22-.27-.44-.15-.11.06-.21.14-.32.21-.1.06-.2.11-.3.16-.01-.01-.02-.03-.03-.04,0-.04.01-.07.03-.11.31-.65.75-.93,1.64-.88.43.02.86.16,1.29.23.47.08.95.12,1.43.05.06,0,.13-.01.19-.03.18-.05.21-.12.13-.29-.1-.2-.2-.41-.31-.61-.05-.11.01-.21.16-.24.21-.04.38.02.55.15.27.2.56.39.85.56.26.15.43.12.66-.07.14-.12.29-.23.45-.32.23-.15.28-.23.21-.5-.2-.88-.6-1.65-1.17-2.35-.79-.96-1.72-1.75-2.77-2.4-.47-.29-.97-.56-1.44-.86-1.08-.68-2-1.54-2.79-2.53-.89-1.11-1.61-2.33-2.12-3.67-.27-.7-.43-1.43-.52-2.18-.05-.4-.19-.79-.27-1.19-.16-.81-.17-1.61,0-2.42.05-.25.05-.5.07-.76.07-1.16.37-2.26.8-3.33.1-.26.1-.56.14-.85.17-1.14.34-2.29.52-3.44.17-1.13.36-2.25.37-3.4,0-.4-.08-.78-.32-1.11-.27-.37-.66-.54-1.09-.62-.7-.12-1.41-.16-2.12-.08-.19.02-.38.08-.58.1-.11.01-.28.01-.33-.05-.06-.08-.06-.24-.03-.35.14-.47.41-.84.81-1.12.77-.55,1.49-1.17,2.07-1.93.4-.52.87-.93,1.46-1.22C4.92.17,5.52.02,6.15,0c.69-.02,1.37.05,2.01.32.67.28,1.24.7,1.72,1.25.78.89,1.3,1.92,1.63,3.05.38,1.32.77,2.64,1.18,3.95.44,1.44.98,2.84,1.63,4.2.67,1.39,1.44,2.72,2.39,3.93.52.67,1.1,1.29,1.67,1.91.66.71,1.34,1.4,2.02,2.08,1.04,1.05,2.15,2.02,3.39,2.83,1.19.78,2.4,1.51,3.59,2.28,1.42.92,2.95,1.61,4.5,2.27,1.36.58,2.71,1.18,4.06,1.79.85.38,1.65.84,2.43,1.35.09.06.19.14.25.23.22.28.1.67-.27.79-.3.09-.62.14-.93.19-.9.13-1.82.14-2.73.15-.5,0-.99.04-1.49.06-.04,0-.09.02-.17.04.22.15.41.28.6.41,1.29.88,2.59,1.73,3.85,2.64.86.61,1.67,1.28,2.5,1.93.15.12.3.25.27.49-.02.2-.06.28-.27.27-.22,0-.44-.04-.65-.08-.83-.16-1.62-.45-2.41-.74-.73-.27-1.46-.54-2.18-.84-.99-.4-1.96-.84-2.94-1.24-1.18-.48-2.33-1.07-3.58-1.35-.99-.23-1.98-.42-2.98-.61-.95-.18-1.89-.1-2.83.1-1.13.24-2.27.47-3.4.72-.52.12-1.01.32-1.35.77-.25.32-.34.69-.36,1.08-.02.48-.26.84-.59,1.15-.19.18-.38.35-.6.55.25.06.45.1.66.15.1.02.19.04.28.07.35.12.47.32.43.74-.07-.03-.14-.05-.18-.09-.08-.07-.14-.15-.22-.22-.08-.08-.16-.07-.18.04-.07.36-.33.39-.62.4-.32,0-.63-.04-.92-.18-.15-.07-.29-.05-.39.08-.35.45-.71.9-1.04,1.37-.19.27-.09.43.24.41.4-.02.8-.05,1.21-.08.21-.02.41-.04.62-.05.3,0,.52.23.51.55Z"/>
  </g>
</svg>