<?xml version="1.0" encoding="UTF-8" standalone="no"?>
<!-- Created with Inkscape (http://www.inkscape.org/) -->

<svg
   width="203.4568mm"
   height="194.57788mm"
   viewBox="0 0 203.4568 194.57788"
   version="1.1"
   id="svg1"
   inkscape:export-filename="Ativo 2.svg"
   inkscape:export-xdpi="96"
   inkscape:export-ydpi="96"
   xmlns:inkscape="http://www.inkscape.org/namespaces/inkscape"
   xmlns:sodipodi="http://sodipodi.sourceforge.net/DTD/sodipodi-0.dtd"
   xmlns="http://www.w3.org/2000/svg"
   xmlns:svg="http://www.w3.org/2000/svg">
  <sodipodi:namedview
     id="namedview1"
     pagecolor="#505050"
     bordercolor="#ffffff"
     borderopacity="1"
     inkscape:showpageshadow="0"
     inkscape:pageopacity="0"
     inkscape:pagecheckerboard="1"
     inkscape:deskcolor="#505050"
     inkscape:document-units="mm" />
  <defs
     id="defs1" />
  <g
     inkscape:label="Camada 1"
     inkscape:groupmode="layer"
     id="layer1"
     transform="translate(-0.52154002,-48.611958)">
    <path
       id="path188"
       d="m 119.25517,48.611958 c 17.15539,0 32.09106,3.272435 44.8445,9.781667 12.82915,6.433122 22.64829,15.499877 29.4953,27.237721 6.92236,11.662493 10.38337,25.093324 10.38337,40.330034 0,12.33991 -2.18041,23.85206 -6.47064,34.46149 -4.21375,10.53369 -10.53405,18.96089 -18.96123,25.28154 -8.35184,6.32028 -18.20884,9.48063 -29.64566,9.48063 -7.75012,0 -14.10827,-1.50338 -19.11157,-4.51482 -5.04153,-3.0868 -8.38968,-7.41123 -10.08269,-12.94162 -4.13842,5.71859 -9.40527,10.15768 -15.80092,13.24266 -6.320651,3.12319 -13.318004,4.66514 -20.917421,4.66514 -10.759745,0 -19.224795,-3.19964 -25.432245,-9.63097 -6.132099,-6.50885 -9.179581,-15.34953 -9.179581,-26.48567 0,-10.60904 2.144014,-20.61638 6.470997,-29.94669 4.401594,-9.40527 10.458703,-16.92969 18.208462,-22.57258 7.712642,-5.71857 16.328014,-8.577871 25.883608,-8.577871 12.22708,0 20.50356,4.364121 24.83018,13.092331 l 1.95472,-11.587518 h 30.09739 l -9.63133,54.776848 c -0.41497,2.63543 -0.60063,4.92833 -0.60063,6.92236 0,6.43314 2.86113,9.63096 8.57752,9.63096 6.92238,0 12.22708,-4.43909 15.95162,-13.393 3.68704,-8.91639 5.56789,-19.18691 5.56789,-30.84977 0,-16.74152 -5.26685,-29.833837 -15.80092,-39.276606 -10.53405,-9.405273 -25.35687,-14.145765 -44.39311,-14.145765 -16.252647,0 -31.075468,3.988085 -44.393475,11.888545 -13.242658,7.82511 -23.70138,18.509506 -31.300798,32.053206 -7.524446,13.54368 -11.28648,28.5172 -11.28648,44.84483 0,17.56929 5.116526,31.22583 15.349556,40.93213 10.308002,9.70631 24.717314,14.59713 43.189323,14.59713 14.333604,0 27.162754,-2.63541 38.524204,-7.82547 l 5.86893,23.77673 c -14.25825,6.20781 -30.24737,9.33028 -48.004826,9.33028 -16.553327,0 -31.112961,-3.23604 -43.640707,-9.63097 C 27.232906,227.12539 17.564086,218.05864 10.754571,206.32079 3.9075599,194.58295 0.52154002,180.85107 0.52154002,165.08765 c 0,-21.85803 5.11650528,-41.68453 15.34953598,-59.44163 C 26.179457,87.813575 40.400213,73.856007 58.458712,63.810793 76.592203,53.690988 96.870067,48.611958 119.25481,48.611958 Z M 95.327759,168.85004 c 3.988085,0 7.750121,-1.20487 11.286461,-3.61097 3.61097,-2.48253 6.471,-5.79392 8.57789,-9.93199 2.1076,-4.21378 3.15959,-8.72822 3.15959,-13.5437 0,-4.89081 -1.43056,-8.91639 -4.21339,-12.03886 -2.70825,-3.08316 -6.471,-4.66515 -11.28648,-4.66515 -6.320301,0 -11.587507,2.78466 -15.800924,8.27684 -4.213758,5.53003 -6.320656,12.03852 -6.320656,19.56295 0,4.81548 1.204869,8.69072 3.610973,11.5875 2.482552,2.93392 6.169954,4.36412 10.985437,4.36412 z m 0,0"
       style="fill:#3c3c3b;fill-opacity:1;fill-rule:nonzero;stroke:none;stroke-width:12.8415"
       aria-label=" @" />
  </g>
</svg>
