<?xml version="1.0" encoding="UTF-8"?>
<svg id="Layer_2" data-name="Layer 2" xmlns="http://www.w3.org/2000/svg" viewBox="0 0 97.27 97.27">
  <defs>
    <style>
      .cls-1 {
        fill: #ffe538;
      }
    </style>
  </defs>
  <g id="Layer_1-2" data-name="Layer 1">
    <g>
      <rect class="cls-1" x="0" width="97.27" height="97.27" rx="35.37" ry="35.37"/>
      <path d="M66,40.01c-.19-.19-.19-.5,0-.69h0c.8-.81,1.89-1.22,3.02-1.26,1.64-.07,3.27-.73,4.52-1.99,2.71-2.71,2.66-7.13-.14-9.78-2.63-2.48-6.9-2.43-9.47,.11-1.27,1.26-1.95,2.89-2.02,4.55-.05,1.14-.46,2.23-1.26,3.04h0c-.19,.19-.5,.19-.69,0l-4.94-4.94c-3.54-3.54-9.27-3.54-12.81,0l-4.94,4.94c-.19,.19-.5,.19-.69,0h0c-.8-.81-1.21-1.9-1.26-3.03-.07-1.64-.73-3.27-1.99-4.52-2.71-2.71-7.13-2.66-9.78,.14-2.48,2.62-2.44,6.9,.1,9.47,1.26,1.28,2.89,1.95,4.55,2.02,1.14,.05,2.23,.46,3.04,1.26,.19,.19,.19,.5,0,.69l-4.94,4.94c-3.54,3.54-3.54,9.27,0,12.81l4.94,4.94c.19,.19,.5,.19,.69,0h0c.8-.81,1.21-1.9,1.26-3.03,.07-1.66,.75-3.29,2.02-4.55,2.57-2.54,6.85-2.59,9.47-.11,2.8,2.65,2.85,7.07,.14,9.78-1.26,1.26-2.88,1.92-4.52,1.99-1.13,.05-2.22,.46-3.02,1.26h0c-.19,.2-.19,.51,0,.7l4.94,4.94c3.54,3.54,9.27,3.54,12.81,0l15.92-15.92c3.54-3.54,3.54-9.27,0-12.81l-4.94-4.94Zm-22.58,6.83c0,.99-.8,1.79-1.79,1.79s-1.79-.8-1.79-1.79v-3.47c0-.99,.8-1.79,1.79-1.79s1.79,.8,1.79,1.79v3.47Zm5.57,4.98c-.48,0-.93-.19-1.27-.52-.7-.7-.7-1.83,0-2.53l2.45-2.45c.34-.34,.79-.52,1.27-.52s.93,.19,1.27,.52c.7,.7,.7,1.83,0,2.53l-2.45,2.45c-.34,.34-.79,.52-1.27,.52Zm6.66,7.36h-3.47c-.99,0-1.79-.8-1.79-1.79s.8-1.79,1.79-1.79h3.47c.99,0,1.79,.8,1.79,1.79s-.8,1.79-1.79,1.79Z"/>
    </g>
  </g>
</svg>