<?xml version="1.0" encoding="UTF-8"?>
<svg id="Layer_2" data-name="Layer 2" xmlns="http://www.w3.org/2000/svg" viewBox="0 0 97.27 97.27">
  <defs>
    <style>
      .cls-1 {
        fill: #ffe538;
      }
    </style>
  </defs>
  <g id="Layer_1-2" data-name="Layer 1">
    <g>
      <rect class="cls-1" x="0" width="97.27" height="97.27" rx="35.37" ry="35.37"/>
      <path d="M27.67,45.8c.36-1.37,.71-2.73,1.87-3.55l12.1-8.45c1.16-.81,2.64-1.01,3.97-.54,1.02,.37,2.1,.65,3.21,.83,9.82,1.58,14.88,9.37,13.39,19.42-1.08,7.27,.2,10.18,2.07,12.26,1.28,1.42,4.1,3.2-1.49,3.95-27.3,3.68-37.1-16.57-35.14-23.92Z"/>
      <g>
        <rect x="25.9" y="21.33" width="9.75" height="20.99" rx="4.87" ry="4.87" transform="translate(39.25 -11.63) rotate(55.07)"/>
        <path d="M27.67,45.8c.36-1.37,.71-2.73,1.87-3.55l12.1-8.45c1.16-.81,2.64-1.01,3.97-.54,1.02,.37,2.1,.65,3.21,.83,9.82,1.58,14.88,9.37,13.39,19.42-1.08,7.27,.2,10.18,2.07,12.26,1.28,1.42,4.1,3.2-1.49,3.95-27.3,3.68-37.1-16.57-35.14-23.92Z"/>
      </g>
    </g>
  </g>
</svg>