<?xml version="1.0" encoding="UTF-8"?>
<svg id="Layer_2" data-name="Layer 2" xmlns="http://www.w3.org/2000/svg" viewBox="0 0 97.27 97.27">
  <defs>
    <style>
      .cls-1 {
        fill: #ffe538;
      }

      .cls-2 {
        fill: #1d1d1b;
      }
    </style>
  </defs>
  <g id="Layer_1-2" data-name="Layer 1">
    <g>
      <rect class="cls-1" x="0" width="97.27" height="97.27" rx="35.37" ry="35.37"/>
      <path class="cls-2" d="M38.54,31.45c-.88,.23-1.49,1.02-1.49,1.93v23.2c0,.65-.59,1.12-1.23,1-1.04-.19-2.15-.2-3.28-.01-4.5,.77-7.62,4.5-6.96,8.33s4.83,6.31,9.33,5.54c4.25-.73,7.26-4.09,7.03-7.69h.02v-23.49c0-.75,.53-1.39,1.26-1.55l14.26-2.96c1.22-.12,2.28,.84,2.28,2.06v13.62c0,.65-.59,1.12-1.23,1-1.04-.19-2.15-.2-3.27-.01-4.5,.77-7.62,4.5-6.96,8.33,.65,3.83,4.83,6.31,9.33,5.54,4.25-.73,7.26-4.09,7.03-7.69h.02V29.22c0-2.32-2.19-4.01-4.44-3.43l-21.7,5.66Z"/>
    </g>
  </g>
</svg>