<?xml version="1.0" encoding="UTF-8"?><svg id="Layer_2" xmlns="http://www.w3.org/2000/svg" viewBox="0 0 97.27 97.27"><defs><style>.cls-1{fill:#00005b;}.cls-2{fill:#99f;}</style></defs><g id="Layer_1-2"><g><rect class="cls-1" x="0" y="0" width="97.27" height="97.27" rx="35.37" ry="35.37"/><g><path class="cls-2" d="m53.06,70.15c-.5.03-.86.06-1.21.06-2.43,0-4.86-.04-7.29.03-.97.03-1.37-.32-1.66-1.22-.9-2.81-1.92-5.58-2.85-8.38-.22-.65-.48-.93-1.22-.93-4.63.04-9.26.04-13.89,0-.74,0-1.01.26-1.21.93-.87,2.82-1.82,5.61-2.68,8.43-.25.81-.63,1.18-1.52,1.16-2.26-.05-4.53-.01-6.8-.02-1.12,0-1.21-.12-.83-1.2,2.36-6.78,4.72-13.56,7.09-20.34,2.05-5.88,4.13-11.75,6.14-17.65.42-1.23.64-2.54.77-3.84.08-.81.37-.97,1.09-.96,3.15.03,6.3.04,9.46,0,.82-.01,1.2.25,1.48,1.03,2.69,7.64,5.42,15.26,8.13,22.89,2.21,6.21,4.43,12.41,6.64,18.62.15.42.23.86.36,1.4Zm-26.6-18.72h10.78c-1.79-5.86-3.55-11.64-5.31-17.42-.07,0-.15.01-.22.02-1.73,5.76-3.47,11.51-5.24,17.4Z"/><path class="cls-2" d="m64.59,55.92c.43,2.87,1.64,5.05,4.29,6.25,3.11,1.41,6.32,1.28,9.56.67,1.41-.26,2.8-.63,4.29-.97,0,2.28.03,4.57-.04,6.85-.01.3-.55.69-.93.84-3.13,1.24-6.43,1.59-9.76,1.48-1.95-.07-3.95-.26-5.83-.77-4.59-1.27-7.85-4.23-9.57-8.65-2.13-5.48-2.01-11.01.46-16.36,3.77-8.14,13.65-11.45,21.62-7.3,4.15,2.16,6.11,5.87,6.73,10.29.3,2.18.04,4.44.04,6.67,0,.68-.39.89-1.02.9-2.23,0-4.46.05-6.68.06-4.04.01-8.08,0-12.11,0-.32,0-.63.03-1.04.06Zm.05-6.16c1.81,0,3.54,0,5.27,0,1.9,0,3.8,0,5.7-.03,1.17-.02,1.4-.29,1.2-1.44-.4-2.26-1.67-3.9-3.89-4.49-4.28-1.15-7.78,1.27-8.29,5.97Z"/></g></g></g></svg>