<?xml version="1.0" encoding="UTF-8"?><svg id="Layer_2" xmlns="http://www.w3.org/2000/svg" viewBox="0 0 97.27 97.27"><defs><style>.cls-1{fill:#00a9ff;}.cls-2{fill:#001834;}</style></defs><g id="Layer_1-2"><g><rect class="cls-2" y="0" width="97.27" height="97.27" rx="35.37" ry="35.37"/><g><path class="cls-1" d="m19.5,48.2c0-6.63.02-13.26-.02-19.89,0-.92.22-1.25,1.21-1.25,4.77,0,9.53-.19,14.3-.11,3.22.06,6.29.94,9.03,2.75,3.79,2.5,5.63,6.12,5.89,10.57.21,3.52-.38,6.86-2.56,9.77-2.52,3.36-6.01,5.08-10.07,5.58-2.65.33-5.34.31-8.02.36-.86.02-1.14.23-1.13,1.11.04,3.76,0,7.52.04,11.27.01.93-.29,1.19-1.19,1.17-2.11-.06-4.23-.06-6.35,0-.9.03-1.13-.3-1.13-1.14.02-6.73.01-13.45.01-20.18Zm8.69-6.61c0,1.9.04,3.79-.02,5.69-.03.92.22,1.33,1.21,1.26,1.13-.08,2.27.02,3.41-.03,1.85-.08,3.64-.43,5.27-1.34,1.37-.76,2.49-1.78,2.91-3.34,1-3.7-.04-7.84-5.09-8.81-2.17-.42-4.46-.25-6.69-.37-.8-.05-1.03.31-1.02,1.06.04,1.96.01,3.92.01,5.88Z"/><path class="cls-1" d="m54.5,60.73c2.34.73,4.55,1.61,6.84,2.05,1.76.34,3.63.15,5.45.15.39,0,.8-.18,1.17-.34,1.33-.61,1.64-2.09.56-3.09-.61-.56-1.38-.99-2.14-1.35-2.3-1.1-4.7-2.01-6.92-3.25-3.5-1.95-5.36-4.98-4.88-9.08.48-4.12,2.97-6.76,6.8-8.06,1.5-.51,3.13-.74,4.72-.83,3.03-.17,6.05.01,8.98.97.75.24,1.06.63,1.04,1.43-.05,1.89,0,3.79-.02,5.69,0,.82-.32,1.07-1.05.71-2.19-1.07-4.53-1.57-6.93-1.71-1.21-.07-2.44.09-3.66.24-.86.1-1.42.67-1.62,1.52-.2.85.18,1.56.85,1.96,1.33.78,2.72,1.44,4.11,2.11,1.76.85,3.58,1.58,5.29,2.51,3.38,1.84,4.97,4.75,4.66,8.61-.3,3.65-2.21,6.24-5.46,7.84-2.25,1.11-4.67,1.49-7.16,1.52-3.34.04-6.61-.27-9.75-1.53-.69-.28-.97-.68-.95-1.42.03-1.99,0-3.98.01-5.97,0-.28.05-.56.06-.69Z"/></g></g></g></svg>