<?xml version="1.0" encoding="UTF-8"?><svg id="Layer_2" xmlns="http://www.w3.org/2000/svg" viewBox="0 0 97.27 97.27"><defs><style>.cls-1{fill:#ff9a00;}.cls-2{fill:#390000;}</style></defs><g id="Layer_1-2"><g><rect class="cls-2" x="0" width="97.27" height="97.27" rx="35.37" ry="35.37"/><path class="cls-1" d="m38.33,24.71c1.53,0,3.06.05,4.58-.02.83-.04,1.18.27,1.45,1.04,4.13,11.73,8.29,23.44,12.45,35.16.77,2.17,1.55,4.34,2.31,6.52.38,1.08.31,1.2-.79,1.2-2.57,0-5.14-.02-7.71.01-.7,0-1.04-.24-1.26-.91-.95-2.86-1.97-5.71-2.92-8.57-.21-.64-.48-.92-1.22-.91-4.58.04-9.17.04-13.76,0-.7,0-.95.24-1.15.86-.89,2.85-1.85,5.68-2.73,8.53-.23.76-.63,1.02-1.4,1-2.21-.04-4.42-.01-6.63-.01-1.33,0-1.41-.11-.96-1.4,4.31-12.42,8.65-24.83,12.92-37.26.48-1.39.68-2.89.89-4.36.09-.67.29-.9.95-.89,1.66.03,3.32,0,4.98,0Zm5.27,25.03c-1.79-5.81-3.53-11.48-5.27-17.15l-.19.04c-1.69,5.67-3.37,11.35-5.08,17.11h10.55Z"/><path class="cls-1" d="m73.04,52.02c0,5.14-.02,10.27.02,15.41,0,.91-.23,1.26-1.2,1.24-2.34-.06-4.68-.05-7.02,0-.86.02-1.14-.31-1.14-1.14.02-10.37.02-20.74,0-31.11,0-.81.27-1.08,1.08-1.06,2.41.04,4.81.04,7.22,0,.8-.01,1.07.25,1.06,1.07-.03,5.2-.02,10.4-.02,15.6Z"/><path class="cls-1" d="m73.62,26.57c0,3.09-2.14,5.3-5.13,5.29-3.1,0-5.23-2.16-5.22-5.3,0-2.97,2.26-5.19,5.27-5.18,3.05.01,5.08,2.09,5.08,5.18Z"/></g></g></svg>