<?xml version="1.0" encoding="UTF-8"?><svg id="Layer_2" xmlns="http://www.w3.org/2000/svg" viewBox="0 0 97.27 97.27"><defs><style>.cls-1{fill:#eb3618;}.cls-2{fill:#ff7262;}.cls-3{fill:#323232;}.cls-4{fill:#8e37ff;}.cls-5{fill:#1dc870;}.cls-6{fill:#1eacfc;}</style></defs><g id="Layer_1-2"><g><rect class="cls-3" x="0" width="97.27" height="97.27" rx="35.37" ry="35.37"/><g><path id="path0_fill" class="cls-5" d="m37.82,82.72c6.27,0,11.37-5.09,11.37-11.37v-11.37h-11.37c-6.27,0-11.37,5.09-11.37,11.37s5.09,11.37,11.37,11.37Z"/><path id="path1_fill" class="cls-4" d="m26.45,48.62c0-6.27,5.09-11.37,11.37-11.37h11.37v22.73h-11.37c-6.27,0-11.37-5.09-11.37-11.37Z"/><path id="path1_fill-2" class="cls-1" d="m26.45,25.89c0-6.27,5.09-11.37,11.37-11.37h11.37v22.73h-11.37c-6.27,0-11.37-5.09-11.37-11.37Z"/><path id="path2_fill" class="cls-2" d="m49.19,14.52h11.37c6.27,0,11.37,5.09,11.37,11.37s-5.09,11.37-11.37,11.37h-11.37V14.52Z"/><path id="path3_fill" class="cls-6" d="m71.92,48.62c0,6.27-5.09,11.37-11.37,11.37s-11.37-5.09-11.37-11.37,5.09-11.37,11.37-11.37,11.37,5.09,11.37,11.37Z"/></g></g></g></svg>