<?xml version="1.0" encoding="UTF-8"?><svg id="Layer_2" xmlns="http://www.w3.org/2000/svg" viewBox="0 0 99.88 99.88"><defs><style>.cls-1{fill:#fff;}.cls-2{fill:#e16107;}.cls-3{fill:#1e4474;}.cls-4{fill:none;stroke:#4d4d4d;stroke-miterlimit:10;stroke-width:2.62px;}</style></defs><g id="Layer_1-2"><g><rect class="cls-4" x="1.31" y="1.31" width="97.27" height="97.27" rx="35.37" ry="35.37"/><g><path class="cls-1" d="m36.65,51.42c.26-4.61,2.51-8.68,5.93-11.56,3.34-2.83,7.83-4.56,12.76-4.56s9.39,1.73,12.73,4.56c3.41,2.88,5.66,6.95,5.93,11.56.26,4.73-1.65,9.15-4.98,12.42-3.41,3.32-8.24,5.41-13.68,5.41s-10.29-2.08-13.68-5.41c-3.34-3.27-5.24-7.66-4.98-12.39l-.02-.02Z"/><g><path class="cls-3" d="m46.87,50.85c.13-2.37,1.29-4.46,3.05-5.94,1.72-1.45,4.02-2.34,6.56-2.34s4.83.89,6.54,2.34c1.75,1.48,2.91,3.57,3.05,5.94.13,2.43-.85,4.7-2.56,6.38-1.75,1.7-4.24,2.78-7.03,2.78s-5.29-1.07-7.03-2.78c-1.72-1.68-2.69-3.94-2.56-6.37h-.01Z"/><path class="cls-2" d="m31.83,55.87c.02.93.31,2.73.76,4.14.93,2.98,2.52,5.74,4.71,8.16,2.26,2.49,5.04,4.5,8.25,5.93,3.37,1.49,7.03,2.26,10.83,2.26,3.8,0,7.46-.78,10.83-2.29,3.21-1.44,5.99-3.45,8.25-5.95,2.21-2.44,3.79-5.2,4.71-8.18.47-1.5.77-3.03.89-4.56.12-1.5.07-3.02-.15-4.54-.42-2.95-1.44-5.72-3.01-8.22-1.43-2.32-3.28-4.34-5.49-6.04h0s-22.19-17.05-22.19-17.05c-.02-.02-.04-.03-.06-.05-1.45-1.12-3.91-1.11-5.5,0-1.62,1.13-1.8,3.01-.36,4.19h0s9.26,7.54,9.26,7.54l-28.2.03h-.04c-2.33,0-4.58,1.53-5.01,3.47-.46,1.97,1.13,3.61,3.56,3.61h0s14.29-.02,14.29-.02l-25.57,19.55s-.07.05-.1.07c-2.41,1.84-3.18,4.91-1.67,6.84,1.54,1.97,4.81,1.98,7.24.01l13.91-11.41s-.2,1.54-.19,2.46l.04.05Zm35.85,5.15c-2.87,2.92-6.89,4.59-11.23,4.59-4.35,0-8.37-1.63-11.24-4.55-1.4-1.43-2.43-3.06-3.07-4.8-.62-1.72-.86-3.53-.7-5.36.15-1.79.69-3.51,1.54-5.05.84-1.52,1.99-2.9,3.41-4.06,2.8-2.27,6.34-3.51,10.05-3.51,3.72,0,7.27,1.21,10.07,3.48,1.42,1.16,2.57,2.53,3.41,4.05.86,1.54,1.39,3.25,1.54,5.05.16,1.83-.08,3.65-.71,5.36-.64,1.75-1.67,3.38-3.07,4.81h0Z"/></g></g></g></g></svg>