<?xml version="1.0" encoding="UTF-8"?>
<svg id="Layer_2" data-name="Layer 2" xmlns="http://www.w3.org/2000/svg" viewBox="0 0 97.27 97.27">
  <defs>
    <style>
      .cls-1 {
        fill: #ffe538;
      }
    </style>
  </defs>
  <g id="Layer_1-2" data-name="Layer 1">
    <g>
      <rect class="cls-1" x="0" width="97.27" height="97.27" rx="35.37" ry="35.37"/>
      <g>
        <path d="M67.59,43.88h0c-.7,0-1.35-.43-1.58-1.09-.24-.69-.51-1.36-.83-2-.31-.63-.15-1.39,.34-1.88h0c1.54-1.54,1.54-4.03,0-5.57l-1.25-1.25c-1.54-1.54-4.03-1.54-5.56,0-.5,.5-1.25,.65-1.88,.34-.65-.31-1.32-.59-2-.83-.66-.23-1.09-.87-1.09-1.58h0c0-2.18-1.76-3.94-3.94-3.94h-1.76c-2.17,0-3.93,1.76-3.93,3.94h0c0,.7-.43,1.35-1.09,1.58-.69,.24-1.36,.51-2,.83-.63,.31-1.39,.15-1.88-.34h0c-1.54-1.54-4.03-1.54-5.56,0l-1.25,1.25c-1.54,1.54-1.54,4.03,0,5.57h0c.5,.5,.65,1.25,.34,1.88-.31,.65-.59,1.32-.83,2-.23,.66-.87,1.09-1.58,1.09h0c-2.17,0-3.93,1.76-3.93,3.94v1.76c0,2.17,1.76,3.93,3.93,3.93h0c.7,0,1.35,.43,1.58,1.09,.24,.69,.51,1.36,.83,2,.31,.63,.15,1.39-.34,1.88h0c-1.54,1.54-1.54,4.03,0,5.57l1.25,1.25c1.54,1.54,4.03,1.54,5.56,0h0c.5-.5,1.25-.65,1.88-.34,.65,.31,1.32,.59,2,.83,.66,.23,1.09,.87,1.09,1.58h0c0,2.18,1.76,3.94,3.93,3.94h1.76c2.17,0,3.94-1.76,3.94-3.94h0c0-.7,.43-1.35,1.09-1.58,.69-.24,1.36-.51,2-.83,.63-.31,1.39-.15,1.88,.34h0c1.54,1.54,4.03,1.54,5.56,0l1.25-1.25c1.54-1.54,1.54-4.03,0-5.57h0c-.5-.49-.65-1.25-.34-1.88,.31-.65,.59-1.32,.83-2,.23-.66,.88-1.09,1.58-1.09h0c2.17,0,3.94-1.76,3.94-3.93v-1.76c0-2.17-1.76-3.94-3.94-3.94Zm-18.67,18.41c-7.49,0-13.59-6.1-13.59-13.59s6.1-13.59,13.59-13.59,13.59,6.1,13.59,13.59-6.1,13.59-13.59,13.59Z"/>
        <path d="M62.5,49.37c-.24,3.1-1.77,4.31-3.54,3.29-.79-.45-1.89-1.09-2.99-1.73-.79-.45-1.21-1.31-1.2-2.22v-.02c0-2.22-1.25-4.14-3.09-5.12-.75-.4-1.17-1.22-1.17-2.07v-3.48c0-2.04,1.81-2.76,4.62-1.42,1.93-1.85-2.63-3.37-2.63-3.37l-3.57,.66-3.57-.66s-4.57,1.51-2.63,3.37c2.81-1.34,4.62-.62,4.62,1.42v3.48c0,.85-.42,1.67-1.17,2.07-1.83,.98-3.09,2.9-3.09,5.12v.02c0,.91-.42,1.76-1.2,2.22-1.11,.64-2.21,1.27-2.99,1.73-1.77,1.02-3.3-.19-3.54-3.29-2.57-.75-1.6,3.96-1.6,3.96l2.36,2.76,1.21,3.43s3.59,3.2,4.23,.6c-2.57-1.76-2.85-3.69-1.08-4.71,.79-.46,1.89-1.09,3-1.73,.73-.42,1.66-.47,2.38-.02,.89,.56,1.94,.88,3.07,.88s2.18-.32,3.07-.88c.72-.45,1.64-.4,2.38,.02,1.11,.64,2.21,1.28,3,1.73,1.77,1.02,1.49,2.95-1.08,4.71,.64,2.6,4.23-.6,4.23-.6l1.21-3.43,2.36-2.76s.97-4.71-1.6-3.96Zm-13.57,2.26c-1.62,0-2.93-1.31-2.93-2.93s1.31-2.93,2.93-2.93,2.93,1.31,2.93,2.93-1.31,2.93-2.93,2.93Z"/>
      </g>
    </g>
  </g>
</svg>