<?xml version="1.0" encoding="UTF-8"?><svg id="Layer_2" xmlns="http://www.w3.org/2000/svg" viewBox="0 0 97.27 97.27"><defs><style>.cls-1{fill:#00005b;}.cls-2{fill:#99f;}</style></defs><g id="Layer_1-2"><g><rect class="cls-1" x="0" y="0" width="97.27" height="97.27" rx="35.37" ry="35.37"/><g><path class="cls-2" d="m29.07,56.63c0,2.79,0,5.44,0,8.08,0,1.52-.04,3.04.01,4.56.03.86-.22,1.22-1.14,1.19-2.23-.06-4.46-.05-6.69,0-.86.02-1.11-.25-1.1-1.1.03-6.63.02-13.25.02-19.88,0-7.11.02-14.22-.02-21.33,0-.91.22-1.21,1.18-1.21,4.94,0,9.89-.25,14.83-.09,4.71.15,8.92,1.79,12.08,5.49,5.77,6.76,3.86,20.75-7.96,23.54-3.21.76-6.46.84-9.73.75-.45-.01-.89,0-1.48,0Zm.07-7.76c3.27.1,6.44.31,9.43-1.05,2.59-1.18,3.82-3.3,3.81-6.11,0-2.62-1.03-4.75-3.48-5.92-3.11-1.48-6.44-.98-9.76-.94v14.02Z"/><path class="cls-2" d="m65.88,41.41c1.54-1.09,3.03-2.27,4.64-3.25,1.71-1.04,3.64-1.46,5.65-1.5.65-.01.95.19.94.87-.02,2.42-.03,4.85,0,7.27.01.87-.47.92-1.11.92-2.49-.02-4.88.43-7.17,1.41-.35.15-.7.34-1.04.52-1.03.54-1.47,1.29-1.46,2.55.08,6.33.02,12.67.05,19,0,.95-.22,1.31-1.23,1.27-2.26-.08-4.52-.02-6.78-.02-1.25,0-1.28-.02-1.28-1.33,0-8.3,0-16.61-.03-24.91,0-2-.11-4-.21-6-.04-.69.2-.91.87-.9,2.1.03,4.2.02,6.3,0,.77,0,1.23.32,1.36,1.08.18,1.04.34,2.09.49,3.02Z"/></g></g></g></svg>