<?xml version="1.0" encoding="UTF-8"?>
<svg xmlns="http://www.w3.org/2000/svg" viewBox="0 0 97.27 97.27">
  <defs>
    <style>
      .cls-1 {
        fill: #ffe538;
      }

      .cls-2 {
        mix-blend-mode: multiply;
      }

      .cls-3 {
        isolation: isolate;
      }
    </style>
  </defs>
  <g class="cls-3">
    <g id="Layer_2" data-name="Layer 2">
      <g id="Layer_1-2" data-name="Layer 1">
        <g>
          <rect class="cls-1" x="0" y="0" width="97.27" height="97.27" rx="35.37" ry="35.37"/>
          <path class="cls-2" d="M34.38,37.11c-7.72,7.72-7.98,20.42-.14,28.02,.89,.86,1.68,1.79,2.37,2.76,.9,1.27,2.36,2.02,3.91,2.02h16.21c1.55,0,3.01-.75,3.91-2.02,.69-.97,1.48-1.9,2.37-2.76,7.85-7.6,7.58-20.3-.14-28.02l-9.04-9.04c-1.34-1.34-3.62-.39-3.62,1.5v14.4c0,1.23,.52,2.37,1.31,3.32,.67,.8,1.01,1.88,.82,3.05-.27,1.61-1.62,2.89-3.24,3.09-2.29,.28-4.24-1.5-4.24-3.74,0-.91,.32-1.74,.86-2.38,.8-.97,1.32-2.13,1.32-3.38v-14.36c0-1.89-2.29-2.84-3.62-1.5l-9.04,9.04Z"/>
        </g>
      </g>
    </g>
  </g>
</svg>