<?xml version="1.0" encoding="UTF-8"?><svg id="Layer_2" xmlns="http://www.w3.org/2000/svg" viewBox="0 0 99.88 99.88"><defs><style>.cls-1{fill:#f9e950;}.cls-2{fill:#4d4d4d;}.cls-3{fill:none;stroke:#4d4d4d;stroke-miterlimit:10;stroke-width:2.62px;}</style></defs><g id="Layer_1-2"><g><rect class="cls-3" x="1.31" y="1.31" width="97.27" height="97.27" rx="35.37" ry="35.37"/><path class="cls-2" d="m60.38,71.34c2.01.37,3.96.52,5.94.36,2.3-.19,4.52-.68,6.58-1.77,2.67-1.41,4.55-3.45,5.03-6.55.03-.21.14-.28.33-.33,1.41-.37,2.68-1.02,3.8-1.93,1.11-.9,1.89-2,1.83-3.52,0-.22.13-.3.28-.39.52-.3.98-.66,1.34-1.15,1.01-1.35,1.11-2.87.78-4.43-.66-3.12-2.35-5.63-4.78-7.65-.23-.19-.3-.36-.26-.65.15-1.12.1-2.23-.24-3.31-1.05-3.32-4.13-5.65-7.63-5.78-.27,0-.41-.1-.51-.36-.83-2.15-2.13-3.97-3.92-5.43-2.26-1.84-4.83-2.84-7.75-2.51-.96.1-1.69-.09-2.52-.5-3.19-1.62-6.64-2.14-10.16-2.31-1.77-.08-3.53.02-5.28.25-1.87.25-3.7.67-5.43,1.46-1.28.58-2.43,1.34-3.23,2.55-.3.46-.48.98-.66,1.49-.37-.02-.72-.03-1.06-.05-2.91-.19-5.76.08-8.48,1.18-3.12,1.26-5.31,3.36-5.92,6.81-.05.26-.19.35-.43.39-.67.1-1.29.34-1.85.7-1.79,1.14-2.57,2.88-2.7,4.9-.23,3.51.88,6.55,3.44,9.02.18.18.27.35.26.6-.03.86.03,1.71.19,2.55.66,3.41,2.46,5.98,5.57,7.59,1.83.94,3.79,1.3,5.84,1.23.34-.01.5.05.6.42.31,1.19.93,2.22,1.81,3.07,2.8,2.71,6.24,3.62,10.03,3.49.21,0,.39,0,.59.09,4.6,2.17,8.66,5.01,11.71,9.16.28.38.66.5,1.11.41.64-.13,1.27-.27,1.91-.4,1.43-.3,2.86-.59,4.29-.9.61-.13.95-.54.9-1.1-.07-.78-.15-1.55-.27-2.33-.22-1.46-.58-2.89-1.05-4.36Z"/><path class="cls-1" d="m58.03,50.8c-.03-.18-.05-.34-.08-.49-.11-.51-.52-.84-1.02-.83-.48.01-.97.4-.97.89.02,1.97-1.14,3.1-2.71,3.96-1.19.64-2.47.97-3.83,1.01-.47.01-.92-.08-1.35-.28-.6-.28-1.17-.09-1.44.46-.24.51-.02,1.08.55,1.38.8.41,1.66.51,2.53.46,2.52-.13,4.74-.99,6.57-2.76.43-.42.78-.9,1.05-1.43.13-.26.26-.33.57-.28,1.61.25,3.15.11,4.51-.9.96-.71,1.57-1.69,2.03-2.77.79-1.85,1.13-3.82,1.63-5.75.37-1.42.76-2.83,1.57-4.07,1.39-2.11,3.32-3.31,5.89-3.02,2.71.31,4.66,1.74,5.52,4.41.45,1.4.21,2.77-.28,4.12-.26.72.07,1.35.75,1.47.29.05.53-.04,1.04-.42.63.5,1.16,1.11,1.64,1.76,1.1,1.45,1.93,3.03,2.16,4.86.15,1.14,0,2.21-1.08,2.92-.06.04-.13.06-.22.11-.95-1.2-2.19-2-3.58-2.58-.22-.09-.19-.26-.2-.43-.11-1.87-.63-3.61-1.68-5.18-.71-1.05-1.61-1.9-2.74-2.47-.62-.31-1.18-.17-1.45.37-.28.54-.08,1.09.51,1.41,1.85,1,2.74,2.67,3.19,4.64.07.29.14.59.09.92-.33.11-.65-.04-.97-.07-.56-.06-1.13-.06-1.69-.05-.72.02-1.17.44-1.15,1.07.01.59.48,1,1.2.97,1.55-.05,3.03.2,4.44.82.95.42,1.82.96,2.45,1.82.52.72.55,1.5-.05,2.15-1.47,1.6-3.28,2.55-5.51,2.25-2.6-.35-4.87-1.44-6.75-3.28-.36-.36-.66-.76-.93-1.2-.83-1.37-.67-2.76.45-3.98.28-.3.56-.6.5-1.06-.06-.42-.28-.74-.7-.86-.43-.12-.8,0-1.11.31-2.01,2.02-2.22,4.84-.52,7.15.15.2.27.42.45.59.39.37.19.64-.1.92-.77.75-1.66,1.31-2.66,1.68-2.49.93-5,.92-7.53.24-.04-.14.05-.19.09-.25.31-.48.23-1.03-.18-1.36-.42-.34-.97-.31-1.37.11-1.11,1.17-2.42,2.07-3.92,2.67-1.5.59-3.04.94-4.66.53-.93-.24-1.67-.76-2.31-1.47-.58-.64-1.46-.47-1.74.31-.15.42,0,.76.28,1.07.88.99,1.93,1.7,3.22,2.02.11.03.22.06.37.11-.35.93-.99,1.61-1.78,2.13-1.13.75-2.4,1.09-3.73,1.18-2.71.19-5.25-.35-7.51-1.91-1.29-.88-2.29-2.01-2.57-3.61-.28-1.55.2-2.94.97-4.26,1.25-2.14,3.09-3.69,5.09-5.09,4.3-3,8.87-5.52,13.71-7.53,2.25-.93,4.56-1.69,6.98-2.05.44-.07.89-.09,1.34-.12.68-.04,1.08-.42,1.07-1.05-.01-.59-.44-.98-1.1-.96-1.96.04-3.84.52-5.69,1.1-.88.28-1.75.59-2.66.9-.23-.48-.32-.99-.36-1.5-.17-2.12.36-3.93,2.37-5.05.56-.31.7-.9.41-1.41-.28-.48-.85-.63-1.4-.34-1.87.97-2.92,2.55-3.3,4.59-.25,1.34-.15,2.68.22,4,.05.16.14.32.1.54-4.31,1.92-8.44,4.2-12.42,6.92-.02-.76.16-1.41.34-2.06.42-1.46,1.06-2.84,1.58-4.27.58-1.62.99-3.26.88-5.01-.04-.56-.19-1.1-.29-1.68.51-.16,1-.12,1.48-.19,1.38-.19,2.74-.48,3.96-1.2,1.74-1.02,2.62-2.59,2.92-4.54.11-.69.11-1.38.1-2.08-.01-.61-.43-1.03-1-1.03-.55,0-1,.45-1,1.04,0,.74-.02,1.47-.18,2.2-.35,1.67-1.4,2.68-3,3.17-1.37.42-2.78.52-4.2.62-1.7.12-3.41.17-5.08.61-1.21.32-2.31.84-3.12,1.85-.38.47-.65.99-.83,1.56-.18.57.07,1.13.59,1.32.54.2,1.09-.03,1.29-.62.4-1.16,1.25-1.77,2.37-2.09,1.05-.3,2.13-.4,3.21-.48.27-.02.38.09.46.33.51,1.49.33,2.97-.11,4.44-.48,1.6-1.2,3.1-1.73,4.68-.42,1.25-.83,2.54-.68,3.86.1.88-.27,1.3-.86,1.81-2.06,1.78-3.67,3.89-4.34,6.6,0,.03-.02.06-.02.08-.21.99-.21,1.01-1.24.96-2.89-.14-5.36-1.14-7.14-3.52-1.03-1.37-1.53-2.94-1.66-4.63,0-.07.01-.14.02-.25.73.26,1.45.47,2.21.53.61.05,1.11-.3,1.18-.84.08-.59-.28-1.1-.9-1.17-2.37-.25-3.94-1.64-5.05-3.62-1.12-2.01-1.6-4.15-1-6.44.38-1.45,1.37-2.41,2.72-2.64.17.54.27,1.11.49,1.64.86,2.07,2.34,3.49,4.48,4.19.35.11.49.3.59.64.61,2.07,1.74,3.74,3.76,4.7.63.3,1.29.52,1.99.56.5.03.85-.22,1-.67.14-.41,0-.85-.34-1.13-.14-.11-.3-.17-.47-.2-2.14-.39-3.33-1.78-3.97-3.75-.3-.95-.38-1.93-.36-2.92,0-.6-.43-1.03-1-1.04-.56-.01-.97.41-1,1.03,0,.2.04.4-.07.64-.6-.22-1.09-.58-1.53-1.02-1.96-1.93-2.11-5.19-.36-7.47,1.21-1.58,2.87-2.43,4.74-2.96,2.42-.68,4.88-.74,7.36-.53.25.02.31.15.37.34.17.6.43,1.17.74,1.71.34.58.91.74,1.44.44.5-.29.63-.85.31-1.43-.29-.54-.57-1.07-.66-1.69-.19-1.32.46-2.22,1.48-2.92,1.38-.95,2.94-1.42,4.55-1.73,4.62-.87,9.19-.66,13.68.73,1.5.46,2.91,1.13,4.13,2.16,1.4,1.18,1.88,2.79,1.31,4.53-.39,1.19-1.09,2.2-1.89,3.15-.46.55-.45,1.17.03,1.57.46.37,1.06.25,1.51-.3,1.09-1.32,2.02-2.72,2.41-4.42.39-1.68.15-3.25-.83-4.68-.09-.13-.18-.26-.27-.4,0,0,0-.03,0-.04,2.87-.33,7.22,2.27,8.8,6.45-.03.12-.15.12-.24.15-2.66.86-4.39,2.71-5.49,5.21-.75,1.72-1.11,3.56-1.56,5.37-.36,1.42-.68,2.84-1.45,4.12-.8,1.33-2.09,1.92-4.11,1.47Z"/><path class="cls-1" d="m53.06,64.54c.71-.34,1.37-.73,1.99-1.17.15-.1.28-.03.41.02,1.74.66,3.55.96,5.4.9,2.7-.09,5.2-.78,7.31-2.56.37-.31.69-.66,1.04-1.05,2.01,1.4,4.22,2.33,6.7,2.6-.16,1.15-.61,2.13-1.34,2.98-1.37,1.59-3.18,2.45-5.15,2.97-3.84,1.03-7.65.85-11.37-.58-1.83-.7-3.43-1.74-4.58-3.37-.16-.22-.31-.45-.41-.74Z"/><path class="cls-1" d="m59.59,77.41c-1.4.3-2.78.57-4.14.89-.5.12-.79.01-1.12-.41-2.36-2.95-5.28-5.25-8.54-7.14-.35-.2-.7-.39-1.12-.63.75-.36,1.42-.71,2.02-1.19.96-.77,1.67-1.73,2.09-2.88.12-.33.28-.43.62-.46.49-.04.97-.16,1.45-.27.18-.04.29-.05.39.14,1.4,2.6,3.68,4.13,6.36,5.17.27.11.42.26.52.52.76,1.89,1.18,3.87,1.47,5.87.02.11,0,.23,0,.4Z"/></g></g></svg>