<?xml version="1.0" encoding="UTF-8"?>
<svg id="Layer_2" data-name="Layer 2" xmlns="http://www.w3.org/2000/svg" viewBox="0 0 97.27 97.27">
  <defs>
    <style>
      .cls-1 {
        fill: #f9e950;
      }

      .cls-2 {
        fill: #ffe538;
      }
    </style>
  </defs>
  <g id="Layer_1-2" data-name="Layer 1">
    <g>
      <rect class="cls-2" y="0" width="97.27" height="97.27" rx="35.37" ry="35.37"/>
      <path d="M52.61,23.02H31.04c-2.11,0-3.83,1.71-3.83,3.83V61.08h6.81c2.8,0,5.07,2.27,5.07,5.07v5.31c0,.12,0,.24-.02,.36h5.94c0-.05,0-.1,0-.15v-13.84c0-1.98,1.16-3.78,2.96-4.61l13.92-6.36c.67-.31,1.39-.46,2.11-.46v-12.02c0-.69-.27-1.35-.76-1.83l-8.78-8.77c-.49-.49-1.14-.76-1.83-.76Z"/>
      <circle class="cls-1" cx="35.02" cy="30.79" r="2.83"/>
      <path d="M78.97,55.47l-13.92-6.36c-.34-.16-.71-.23-1.08-.23s-.73,.08-1.08,.23l-13.92,6.36c-.92,.42-1.51,1.34-1.51,2.35v13.84c0,1.43,1.16,2.59,2.59,2.59h27.83c1.43,0,2.59-1.16,2.59-2.59v-13.84c0-1.01-.59-1.93-1.51-2.35Z"/>
      <circle class="cls-1" cx="54.94" cy="61.85" r="2.83"/>
      <rect x="16.79" y="63.56" width="19.82" height="10.48" rx="2.59" ry="2.59"/>
      <circle class="cls-1" cx="26.7" cy="68.8" r="2.83"/>
      <path class="cls-1" d="M53.15,26.1v6.5c0,.82,.67,1.49,1.49,1.49h6.51l-8-7.99Z"/>
    </g>
  </g>
</svg>