<?xml version="1.0" encoding="UTF-8"?><svg id="Layer_2" xmlns="http://www.w3.org/2000/svg" viewBox="0 0 99.88 99.88"><defs><style>.cls-1{fill:#fff;}.cls-2{fill:#b86652;}.cls-3{fill:#64c22e;}.cls-4{fill:#2093cd;}.cls-5{fill:none;stroke:#4d4d4d;stroke-miterlimit:10;stroke-width:2.62px;}</style></defs><g id="Layer_1-2"><g><rect class="cls-5" x="1.31" y="1.31" width="97.27" height="97.27" rx="35.37" ry="35.37"/><g><path class="cls-2" d="m67.62,22.02c12.38,6.19,16.34,17.76,12.44,30.51-3.33,10.88-19.26,33.13-30.51,33.13s-27.36-21.81-30.73-33.28c-4.37-14.87,2.1-26.61,15.97-31.93,12.38-4.75,23.69-3,32.83,1.57Z"/><path class="cls-4" d="m67.62,22.02c-9.14-4.57-20.45-6.32-32.83-1.57-3.8,1.46-7.05,3.4-9.67,5.76,1.16,3.43,4.12,5.63,4.12,5.63,0,0,12.29.52,16.57-1.35,4.27-1.87,14.24,1.5,22.71,5.77,5.52,2.83,10.19,9.82,12.28,13.44,2.52-11.61-1.72-21.95-13.18-27.69Z"/><path class="cls-3" d="m50.91,61.9l-6.67-12.14s-8.1-10.27-14.99-17.91c-.95-1.6-2.41-3.58-3.61-6.08-7.31,6.24-10.06,15.56-6.8,26.62,3,10.21,15.88,28.63,26.81,32.54.03,0,.06-.02.08-.03.53-1.12,1.3-2.74,2.41-5.08,3.6-7.57,2.77-17.91,2.77-17.91Z"/><path class="cls-1" d="m29.24,31.84s4.34,6.84,13.34,17.54c9.89,11.77,7.95,24.36,5.55,30.43,8.69-16.19,1.57-29.33-1.05-33.51-3.52-5.62-8.77-10.64-8.77-10.64,11.84-6,25.41-3.52,34.93,4.12-11.32-11.32-29.31-14.84-44-7.95Z"/></g></g></g></svg>