<?xml version="1.0" encoding="UTF-8"?>
<svg id="Layer_2" data-name="Layer 2" xmlns="http://www.w3.org/2000/svg" viewBox="0 0 97.27 97.27">
  <defs>
    <style>
      .cls-1 {
        fill: #ffe538;
      }
    </style>
  </defs>
  <g id="Layer_1-2" data-name="Layer 1">
    <g>
      <rect class="cls-1" x="0" width="97.27" height="97.27" rx="35.37" ry="35.37"/>
      <g>
        <path d="M42.34,49.6v-11.94c0-3.35,2.53-6.28,5.87-6.49,3.66-.24,6.71,2.66,6.71,6.28v12.16c0,.7,.57,1.27,1.27,1.27h3.75c.7,0,1.27-.57,1.27-1.27v-12.13c0-6.78-5.21-12.61-11.98-12.93-7.23-.34-13.19,5.42-13.19,12.57v12.49c0,.7,.57,1.27,1.27,1.27h3.74c.7,0,1.27-.57,1.27-1.27Z"/>
        <path d="M63.72,61.92c1.06-1.96,1.66-2.94,1.64-5.31-.01-2.12-1.83-3.82-4.01-3.82h-25.43c-2.18,0-4,1.7-4.01,3.82-.01,2.37,.58,3.35,1.64,5.31,1.17,2.15,3.46,3.5,5.96,3.5h18.24c2.5,0,4.8-1.35,5.96-3.5Z"/>
        <path d="M58.97,70.1s0-.08,0-.13c0-1.58-1.13-2.85-2.48-2.85h-15.71c-1.35,0-2.47,1.27-2.48,2.85,0,.04,0,.08,0,.13,.02,4.12,2.99,5.82,6.5,5.82h7.67c3.51,0,6.48-1.7,6.5-5.82Z"/>
        <g>
          <path d="M36.94,17.64c-.73,.73-.73,1.92,0,2.65l2.56,2.56c.73,.73,1.92,.73,2.65,0s.73-1.92,0-2.65l-2.56-2.56c-.73-.73-1.92-.73-2.65,0Z"/>
          <path d="M57.67,17.64l-2.56,2.56c-.73,.73-.73,1.92,0,2.65,.73,.73,1.92,.73,2.65,0l2.56-2.56c.73-.73,.73-1.92,0-2.65s-1.92-.73-2.65,0Z"/>
          <path d="M48.63,12.94c-.5,0-.97,.19-1.32,.55h0c-.35,.35-.55,.82-.55,1.32v3.63c0,1.03,.84,1.87,1.87,1.87,.5,0,.97-.19,1.32-.55s.55-.82,.55-1.32v-3.63c0-1.03-.84-1.87-1.87-1.87Z"/>
        </g>
      </g>
    </g>
  </g>
</svg>