<?xml version="1.0" encoding="UTF-8"?>
<svg id="Layer_2" data-name="Layer 2" xmlns="http://www.w3.org/2000/svg" viewBox="0 0 97.27 97.27">
  <defs>
    <style>
      .cls-1 {
        fill: #ffe538;
      }
    </style>
  </defs>
  <g id="Layer_1-2" data-name="Layer 1">
    <g>
      <rect class="cls-1" x="0" width="97.27" height="97.27" rx="35.37" ry="35.37"/>
      <g>
        <path d="M36.83,42.24h-8.83c-1.61,0-2.92,1.31-2.92,2.92v17.33c0,1.61,1.31,2.92,2.92,2.92h8.83c1.61,0,2.92-1.31,2.92-2.92v-17.33c0-1.61-1.31-2.92-2.92-2.92Zm-4.45,19.02c-1.45,0-2.63-1.18-2.63-2.63s1.18-2.63,2.63-2.63,2.63,1.18,2.63,2.63-1.18,2.63-2.63,2.63Z"/>
        <path d="M64.88,67.37c1.54,0,3.58-2.04,3.58-3.58v-.33c0-.91-.44-1.72-1.12-2.23,1.58-.18,2.81-1.52,2.81-3.15v-.37c0-1.19-.66-2.23-1.63-2.77,1.63-.37,2.84-1.83,2.84-3.56v-.43c0-1.21-.59-2.27-1.49-2.94,1.61-.69,2.74-2.3,2.74-4.16v-.53c0-2.5-2.03-4.53-4.53-4.53h-13.85c0-5.33,3.05-8.59,.12-13.05-2.45-3.73-7.35-3.24-7.8-.39v5.86c-.68,1.6-2.7,4.38-4.48,6.67-.52,.67-.98,1.39-1.37,2.14,1.24,1.01,2.04,2.54,2.04,4.27v19.1c0,1.08-.31,2.08-.85,2.93,1.02,.16,1.62,1.07,3.51,1.07h19.48Z"/>
      </g>
    </g>
  </g>
</svg>