<?xml version="1.0" encoding="UTF-8"?>
<svg id="Layer_2" data-name="Layer 2" xmlns="http://www.w3.org/2000/svg" viewBox="0 0 97.27 97.27">
  <defs>
    <style>
      .cls-1 {
        fill: #ffe538;
      }
    </style>
  </defs>
  <g id="Layer_1-2" data-name="Layer 1">
    <g>
      <rect class="cls-1" x="0" y="0" width="97.27" height="97.27" rx="35.37" ry="35.37"/>
      <circle cx="59.55" cy="48.66" r="18.35"/>
      <g>
        <path d="M15.92,45.77c0-1.45-1.17-2.62-2.62-2.62h-4.89c-1.45,0-2.62,1.17-2.62,2.62s1.17,2.62,2.62,2.62h4.89c1.45,0,2.62-1.17,2.62-2.62Z"/>
        <path d="M15.91,61.83h-2.61c-1.45,0-2.62,1.17-2.62,2.62s1.17,2.62,2.62,2.62h2.61c1.45,0,2.62-1.17,2.62-2.62s-1.17-2.62-2.62-2.62Z"/>
        <path d="M37.34,48.66c0-7.57,3.79-14.25,9.57-18.26-.63-.06-1.26-.1-1.9-.1-.09,0-.17,.01-.26,.01-.24-.07-.48-.12-.74-.12H26c-1.42,0-2.69,1.06-2.76,2.48-.08,1.51,1.12,2.76,2.62,2.76h2.69c1.41,0,2.22,1.58,1.41,2.73-.85,1.21-1.55,2.52-2.09,3.91-.25,.66-.9,1.08-1.6,1.08h-4.43c-1.42,0-2.69,1.06-2.76,2.48-.08,1.51,1.12,2.76,2.62,2.76h3.3c.91,0,1.65,.7,1.72,1.6,.28,3.32,1.43,6.47,3.22,9.09,.79,1.17,0,2.74-1.41,2.74h-3.24c-1.27,0-2.43,.86-2.67,2.1-.32,1.67,.95,3.14,2.57,3.14h18.81c.2,0,.4-.03,.59-.07,.14,0,.28,.02,.42,.02,.64,0,1.28-.03,1.9-.1-5.78-4.01-9.57-10.69-9.57-18.26Z"/>
        <path d="M17,30.2h-1.1c-1.45,0-2.62,1.17-2.62,2.62s1.17,2.62,2.62,2.62h1.1c1.45,0,2.62-1.17,2.62-2.62s-1.17-2.62-2.62-2.62Z"/>
      </g>
    </g>
  </g>
</svg>